<svg width="20" height="21" viewBox="0 0 20 21" fill="none" xmlns="http://www.w3.org/2000/svg">
<g clip-path="url(#clip0_365_394)">
<path d="M16.6669 17.99V20.0734H15.0002V17.99C15.0002 16.8417 14.0652 15.9067 12.9169 15.9067H7.08352C5.93519 15.9067 5.00019 16.8417 5.00019 17.99V20.0734H3.33352V17.99C3.33352 15.9225 5.01602 14.24 7.08352 14.24H12.9169C14.9844 14.24 16.6669 15.9225 16.6669 17.99ZM18.3335 3.82337V10.0734H16.6669V4.63253L15.0002 5.46587V7.57337C15.0002 10.3309 12.7577 12.5734 10.0002 12.5734C7.24269 12.5734 5.00019 10.3309 5.00019 7.57337V5.46587L1.71436 3.82337L8.56352 0.400034C9.43602 -0.0341324 10.5627 -0.0349657 11.4352 0.400034L18.3335 3.82337ZM5.44186 3.82337L9.30935 5.7567C9.70935 5.9567 10.2902 5.9567 10.691 5.7567L14.5585 3.82337L10.691 1.89003C10.2919 1.69087 9.70852 1.69003 9.30852 1.89003L5.44186 3.82337ZM13.3335 6.2992L11.4369 7.24754C11.001 7.46587 10.5002 7.57503 10.0002 7.57503C9.50019 7.57503 9.00019 7.46587 8.56352 7.24754L6.66686 6.2992V7.57337C6.66686 9.4117 8.16186 10.9067 10.0002 10.9067C11.8385 10.9067 13.3335 9.4117 13.3335 7.57337V6.2992Z" fill="white"/>
</g>
<defs>
<clipPath id="clip0_365_394">
<rect width="20" height="20" fill="white" transform="translate(0 0.0732422)"/>
</clipPath>
</defs>
</svg>
