<svg width="34" height="32" viewBox="0 0 34 32" fill="none" xmlns="http://www.w3.org/2000/svg">
<rect width="34" height="32" rx="16" fill="#2E4EAD"/>
<path d="M23.8086 20.3633C24.0547 20.6367 24.0547 21.0469 23.7812 21.293L23.0156 22.0586C22.7695 22.332 22.3594 22.332 22.0859 22.0586L19.3789 19.3516C19.2422 19.2148 19.1875 19.0508 19.1875 18.8867V18.4219C18.2031 19.1875 17 19.625 15.6875 19.625C12.543 19.625 10 17.082 10 13.9375C10 10.8203 12.543 8.25 15.6875 8.25C18.8047 8.25 21.375 10.8203 21.375 13.9375C21.375 15.2773 20.9102 16.4805 20.1719 17.4375H20.6094C20.7734 17.4375 20.9375 17.5195 21.0742 17.6289L23.8086 20.3633ZM15.6875 17.4375C17.6016 17.4375 19.1875 15.8789 19.1875 13.9375C19.1875 12.0234 17.6016 10.4375 15.6875 10.4375C13.7461 10.4375 12.1875 12.0234 12.1875 13.9375C12.1875 15.8789 13.7461 17.4375 15.6875 17.4375Z" fill="white"/>
</svg>
