<svg width="24" height="25" viewBox="0 0 24 25" fill="none" xmlns="http://www.w3.org/2000/svg">
<mask id="mask0_365_386" style="mask-type:alpha" maskUnits="userSpaceOnUse" x="0" y="0" width="24" height="25">
<rect y="0.573242" width="24" height="24" fill="#D9D9D9"/>
</mask>
<g mask="url(#mask0_365_386)">
<path d="M22 22.5734L18 18.5734H8C7.45 18.5734 6.97917 18.3775 6.5875 17.9859C6.19583 17.5942 6 17.1234 6 16.5734V15.5734H17C17.55 15.5734 18.0208 15.3775 18.4125 14.9859C18.8042 14.5942 19 14.1234 19 13.5734V6.57336H20C20.55 6.57336 21.0208 6.7692 21.4125 7.16086C21.8042 7.55253 22 8.02336 22 8.57336V22.5734ZM4 12.7484L5.175 11.5734H15V4.57336H4V12.7484ZM2 17.5734V4.57336C2 4.02336 2.19583 3.55253 2.5875 3.16086C2.97917 2.7692 3.45 2.57336 4 2.57336H15C15.55 2.57336 16.0208 2.7692 16.4125 3.16086C16.8042 3.55253 17 4.02336 17 4.57336V11.5734C17 12.1234 16.8042 12.5942 16.4125 12.9859C16.0208 13.3775 15.55 13.5734 15 13.5734H6L2 17.5734Z" fill="white"/>
</g>
</svg>
