<svg width="20" height="21" viewBox="0 0 20 21" fill="none" xmlns="http://www.w3.org/2000/svg">
<path d="M5.83333 8.35102C5.61232 8.35102 5.40036 8.43882 5.24408 8.5951C5.0878 8.75138 5 8.96334 5 9.18435C5 9.40537 5.0878 9.61733 5.24408 9.77361C5.40036 9.92989 5.61232 10.0177 5.83333 10.0177C6.05435 10.0177 6.26631 9.92989 6.42259 9.77361C6.57887 9.61733 6.66667 9.40537 6.66667 9.18435C6.66667 8.96334 6.57887 8.75138 6.42259 8.5951C6.26631 8.43882 6.05435 8.35102 5.83333 8.35102ZM5 15.2955C5 15.0745 5.0878 14.8625 5.24408 14.7062C5.40036 14.5499 5.61232 14.4621 5.83333 14.4621C6.05435 14.4621 6.26631 14.5499 6.42259 14.7062C6.57887 14.8625 6.66667 15.0745 6.66667 15.2955C6.66667 15.5165 6.57887 15.7284 6.42259 15.8847C6.26631 16.041 6.05435 16.1288 5.83333 16.1288C5.61232 16.1288 5.40036 16.041 5.24408 15.8847C5.0878 15.7284 5 15.5165 5 15.2955ZM0 4.18435C0 3.22663 0.380455 2.30813 1.05767 1.63091C1.73488 0.953697 2.65338 0.573242 3.61111 0.573242H16.3889C17.3466 0.573242 18.2651 0.953697 18.9423 1.63091C19.6195 2.30813 20 3.22663 20 4.18435V16.9621C20 17.9199 19.6195 18.8384 18.9423 19.5156C18.2651 20.1928 17.3466 20.5732 16.3889 20.5732H3.61111C2.65338 20.5732 1.73488 20.1928 1.05767 19.5156C0.380455 18.8384 0 17.9199 0 16.9621V4.18435ZM3.33333 9.18435C3.33333 9.51266 3.398 9.83775 3.52363 10.1411C3.64927 10.4444 3.83342 10.72 4.06557 10.9521C4.29771 11.1843 4.57331 11.3684 4.87663 11.4941C5.17994 11.6197 5.50503 11.6844 5.83333 11.6844C6.16164 11.6844 6.48673 11.6197 6.79004 11.4941C7.09336 11.3684 7.36895 11.1843 7.6011 10.9521C7.83325 10.72 8.0174 10.4444 8.14303 10.1411C8.26867 9.83775 8.33333 9.51266 8.33333 9.18435C8.33333 8.52131 8.06994 7.88543 7.6011 7.41659C7.13226 6.94775 6.49637 6.68435 5.83333 6.68435C5.17029 6.68435 4.53441 6.94775 4.06557 7.41659C3.59673 7.88543 3.33333 8.52131 3.33333 9.18435ZM5.83333 12.7955C5.17029 12.7955 4.53441 13.0589 4.06557 13.5277C3.59673 13.9965 3.33333 14.6324 3.33333 15.2955C3.33333 15.9585 3.59673 16.5944 4.06557 17.0632C4.53441 17.5321 5.17029 17.7955 5.83333 17.7955C6.49637 17.7955 7.13226 17.5321 7.6011 17.0632C8.06994 16.5944 8.33333 15.9585 8.33333 15.2955C8.33333 14.6324 8.06994 13.9965 7.6011 13.5277C7.13226 13.0589 6.49637 12.7955 5.83333 12.7955ZM10 9.18435C10 9.64435 10.3733 10.0177 10.8333 10.0177H15.8333C16.0543 10.0177 16.2663 9.92989 16.4226 9.77361C16.5789 9.61733 16.6667 9.40537 16.6667 9.18435C16.6667 8.96334 16.5789 8.75138 16.4226 8.5951C16.2663 8.43882 16.0543 8.35102 15.8333 8.35102H10.8333C10.6123 8.35102 10.4004 8.43882 10.2441 8.5951C10.0878 8.75138 10 8.96334 10 9.18435ZM10.8333 14.4621C10.6123 14.4621 10.4004 14.5499 10.2441 14.7062C10.0878 14.8625 10 15.0745 10 15.2955C10 15.5165 10.0878 15.7284 10.2441 15.8847C10.4004 16.041 10.6123 16.1288 10.8333 16.1288H15.8333C16.0543 16.1288 16.2663 16.041 16.4226 15.8847C16.5789 15.7284 16.6667 15.5165 16.6667 15.2955C16.6667 15.0745 16.5789 14.8625 16.4226 14.7062C16.2663 14.5499 16.0543 14.4621 15.8333 14.4621H10.8333ZM3.33333 4.18435C3.33333 4.64435 3.70667 5.01769 4.16667 5.01769H15.8333C16.0543 5.01769 16.2663 4.92989 16.4226 4.77361C16.5789 4.61733 16.6667 4.40537 16.6667 4.18435C16.6667 3.96334 16.5789 3.75138 16.4226 3.5951C16.2663 3.43882 16.0543 3.35102 15.8333 3.35102H4.16667C3.94565 3.35102 3.73369 3.43882 3.57741 3.5951C3.42113 3.75138 3.33333 3.96334 3.33333 4.18435Z" fill="white"/>
</svg>
