<svg width="20" height="21" viewBox="0 0 20 21" fill="none" xmlns="http://www.w3.org/2000/svg">
<g clip-path="url(#clip0_365_402)">
<path d="M6.66667 0.573242C3.90917 0.573242 1.66667 2.81574 1.66667 5.57324C1.66667 8.33074 3.90917 10.5732 6.66667 10.5732C9.42417 10.5732 11.6667 8.33074 11.6667 5.57324C11.6667 2.81574 9.42417 0.573242 6.66667 0.573242ZM6.66667 8.90658C4.82833 8.90658 3.33333 7.41158 3.33333 5.57324C3.33333 3.73491 4.82833 2.23991 6.66667 2.23991C8.505 2.23991 10 3.73491 10 5.57324C10 7.41158 8.505 8.90658 6.66667 8.90658ZM3.75 12.2399H8.33333V13.9066H3.75C2.60167 13.9066 1.66667 14.8416 1.66667 15.9899V20.5732H0V15.9899C0 13.9224 1.6825 12.2399 3.75 12.2399ZM18.75 15.5732C18.75 15.1899 18.6758 14.8274 18.5683 14.4791L19.7483 13.7991L18.9167 12.3549L17.7408 13.0324C17.2367 12.4891 16.58 12.0949 15.8333 11.9241V10.5732H14.1667V11.9241C13.42 12.0949 12.7625 12.4891 12.2592 13.0324L11.0833 12.3549L10.2517 13.7991L11.4317 14.4791C11.3242 14.8274 11.25 15.1899 11.25 15.5732C11.25 15.9566 11.3242 16.3191 11.4317 16.6674L10.2517 17.3474L11.0833 18.7916L12.2592 18.1141C12.7633 18.6574 13.42 19.0516 14.1667 19.2224V20.5732H15.8333V19.2224C16.58 19.0516 17.2375 18.6574 17.7408 18.1141L18.9167 18.7916L19.7483 17.3474L18.5683 16.6674C18.6758 16.3191 18.75 15.9566 18.75 15.5732ZM15 17.6566C13.8517 17.6566 12.9167 16.7216 12.9167 15.5732C12.9167 14.4249 13.8517 13.4899 15 13.4899C16.1483 13.4899 17.0833 14.4249 17.0833 15.5732C17.0833 16.7216 16.1483 17.6566 15 17.6566Z" fill="white"/>
</g>
<defs>
<clipPath id="clip0_365_402">
<rect width="20" height="20" fill="white" transform="translate(0 0.573242)"/>
</clipPath>
</defs>
</svg>
