<svg width="24" height="25" viewBox="0 0 24 25" fill="none" xmlns="http://www.w3.org/2000/svg">
<g clip-path="url(#clip0_365_413)">
<path d="M6.6665 4.03992H18.6665V5.07325H6.6665V4.03992Z" fill="white"/>
<path d="M19.3335 5.90662H6.57346C6.40333 5.90421 6.23544 5.86736 6.07994 5.79831C5.92443 5.72925 5.78453 5.62941 5.66865 5.50482C5.55278 5.38022 5.46334 5.23345 5.40573 5.07335C5.34812 4.91325 5.32354 4.74314 5.33346 4.57328C5.33263 4.23525 5.46022 3.90953 5.69042 3.662C5.92063 3.41447 6.23626 3.26361 6.57346 3.23995H19.3335C19.5103 3.23995 19.6798 3.16971 19.8049 3.04469C19.9299 2.91966 20.0001 2.75009 20.0001 2.57328C20.0001 2.39647 19.9299 2.2269 19.8049 2.10188C19.6798 1.97685 19.5103 1.90662 19.3335 1.90662H6.57346C5.88251 1.93081 5.22798 2.22241 4.74789 2.71991C4.2678 3.21741 3.9997 3.88192 4.00012 4.57328C3.99345 4.68207 3.99345 4.79116 4.00012 4.89995C3.9937 4.95309 3.9937 5.00681 4.00012 5.05995V20.5733C3.9997 21.2647 4.2678 21.9292 4.74789 22.4267C5.22798 22.9242 5.88251 23.2158 6.57346 23.24H19.3335C19.5103 23.24 19.6798 23.1697 19.8049 23.0447C19.9299 22.9197 20.0001 22.7501 20.0001 22.5733V6.61995C20.0005 6.43858 19.9318 6.26387 19.808 6.13135C19.6841 5.99884 19.5144 5.91848 19.3335 5.90662ZM18.6668 21.9066H6.57346C6.23626 21.883 5.92063 21.7321 5.69042 21.4846C5.46022 21.237 5.33263 20.9113 5.33346 20.5733V6.93995C5.71252 7.14906 6.14073 7.25266 6.57346 7.23995H18.6668V21.9066Z" fill="white"/>
</g>
<defs>
<clipPath id="clip0_365_413">
<rect width="24" height="24" fill="white" transform="translate(0 0.573242)"/>
</clipPath>
</defs>
</svg>
