<svg width="4" height="16" viewBox="0 0 4 16" fill="none" xmlns="http://www.w3.org/2000/svg">
<path d="M3.13316 14.4055C3.13316 14.8131 2.98721 15.1628 2.69529 15.4547C2.40337 15.7466 2.05362 15.8926 1.64604 15.8926C1.23845 15.8926 0.888702 15.7466 0.596784 15.4547C0.304866 15.1628 0.158907 14.8131 0.158907 14.4055C0.158907 13.9979 0.304866 13.6481 0.596784 13.3562C0.888702 13.0643 1.23845 12.9183 1.64604 12.9183C1.91592 12.9183 2.16378 12.9872 2.3896 13.1249C2.61542 13.2571 2.79718 13.4361 2.93488 13.6619C3.06707 13.8822 3.13316 14.1301 3.13316 14.4055ZM3.13316 7.99842C3.13316 8.40601 2.98721 8.75576 2.69529 9.04768C2.40337 9.33959 2.05362 9.48555 1.64604 9.48555C1.23845 9.48555 0.888702 9.33959 0.596784 9.04768C0.304866 8.75576 0.158907 8.40601 0.158907 7.99842C0.158907 7.59084 0.304866 7.24109 0.596784 6.94917C0.888702 6.65725 1.23845 6.51129 1.64604 6.51129C1.91592 6.51129 2.16378 6.58014 2.3896 6.71784C2.61542 6.85003 2.79718 7.02904 2.93488 7.25486C3.06707 7.47517 3.13316 7.72303 3.13316 7.99842ZM3.13316 1.59138C3.13316 1.99896 2.98721 2.34871 2.69529 2.64063C2.40337 2.93255 2.05362 3.07851 1.64604 3.07851C1.23845 3.07851 0.888702 2.93255 0.596784 2.64063C0.304866 2.34871 0.158907 1.99896 0.158907 1.59138C0.158907 1.18379 0.304866 0.834043 0.596784 0.542125C0.888702 0.250207 1.23845 0.104248 1.64604 0.104248C1.91592 0.104248 2.16378 0.173097 2.3896 0.310794C2.61542 0.442983 2.79718 0.621989 2.93488 0.847812C3.06707 1.06813 3.13316 1.31598 3.13316 1.59138Z" fill="black"/>
</svg>
