<svg width="20" height="21" viewBox="0 0 20 21" fill="none" xmlns="http://www.w3.org/2000/svg">
<path d="M19.2675 8.11745L12.9467 1.79199C12.1644 1.01152 11.1047 0.573242 10 0.573242C8.89528 0.573242 7.83563 1.01152 7.05334 1.79199L0.732509 8.11745C0.499531 8.34907 0.314818 8.62467 0.189079 8.92826C0.0633393 9.23184 -0.000925333 9.55738 1.00662e-05 9.88601V18.0717C1.00662e-05 18.7352 0.263402 19.3714 0.732242 19.8406C1.20108 20.3097 1.83697 20.5732 2.50001 20.5732H17.5C18.163 20.5732 18.7989 20.3097 19.2678 19.8406C19.7366 19.3714 20 18.7352 20 18.0717V9.88601C20.0009 9.55738 19.9367 9.23184 19.8109 8.92826C19.6852 8.62467 19.5005 8.34907 19.2675 8.11745ZM12.5 18.9056H7.5V15.6253C7.5 14.9618 7.76339 14.3256 8.23223 13.8565C8.70108 13.3873 9.33696 13.1238 10 13.1238C10.663 13.1238 11.2989 13.3873 11.7678 13.8565C12.2366 14.3256 12.5 14.9618 12.5 15.6253V18.9056ZM18.3333 18.0717C18.3333 18.2929 18.2455 18.505 18.0892 18.6614C17.933 18.8177 17.721 18.9056 17.5 18.9056H14.1667V15.6253C14.1667 14.5195 13.7277 13.4591 12.9463 12.6772C12.1649 11.8954 11.1051 11.4561 10 11.4561C8.89493 11.4561 7.83513 11.8954 7.05372 12.6772C6.27232 13.4591 5.83334 14.5195 5.83334 15.6253V18.9056H2.50001C2.27899 18.9056 2.06703 18.8177 1.91075 18.6614C1.75447 18.505 1.66668 18.2929 1.66668 18.0717V9.88601C1.66745 9.66503 1.75517 9.45324 1.91084 9.29649L8.23167 2.97353C8.70142 2.5057 9.33722 2.24305 10 2.24305C10.6628 2.24305 11.2986 2.5057 11.7683 2.97353L18.0892 9.29899C18.2442 9.45512 18.3319 9.66589 18.3333 9.88601V18.0717Z" fill="white"/>
</svg>
