<svg width="22" height="23" viewBox="0 0 22 23" fill="none" xmlns="http://www.w3.org/2000/svg">
<path d="M10.0835 8.8232C10.0835 10.3449 8.85516 11.5732 7.3335 11.5732C5.81183 11.5732 4.5835 10.3449 4.5835 8.8232C4.5835 7.30153 5.81183 6.0732 7.3335 6.0732C8.85516 6.0732 10.0835 7.30153 10.0835 8.8232ZM12.8335 18.9065H1.8335V17.0732C1.8335 15.0474 4.29933 13.4065 7.3335 13.4065C10.3677 13.4065 12.8335 15.0474 12.8335 17.0732M20.1668 11.5732V13.4065H11.9168V11.5732M20.1668 7.90653V9.73987H11.9168V7.90653M20.1668 4.23987V6.0732H11.9168V4.23987H20.1668Z" fill="white"/>
</svg>
