<svg width="20" height="21" viewBox="0 0 20 21" fill="none" xmlns="http://www.w3.org/2000/svg">
<g clip-path="url(#clip0_365_406)">
<path d="M8.969 10.8725L4.1665 13.9066L6.6665 15.4858V19.3608C6.6665 19.3608 7.619 20.5733 9.99984 20.5733C12.3807 20.5733 13.3332 19.3608 13.3332 19.3608V15.4858L14.1665 14.9591V18.9058H15.8332V13.9058L11.0307 10.8716C10.4123 10.48 9.5865 10.48 8.969 10.8716V10.8725ZM11.6665 18.5566C11.3423 18.725 10.8048 18.9066 9.99984 18.9066C9.16734 18.9066 8.62067 18.7116 8.29984 18.5391L8.3065 16.5225L8.96817 16.9408C9.27734 17.1366 9.634 17.24 9.999 17.24C10.364 17.24 10.7207 17.1366 11.029 16.9416L11.6657 16.54V18.5575L11.6665 18.5566ZM10.1398 15.5325C10.0532 15.5858 9.9465 15.5866 9.85984 15.5325L7.28734 13.9075L9.86067 12.2816C9.94734 12.2283 10.054 12.2275 10.1407 12.2816L12.7132 13.9066L10.1398 15.5325Z" fill="white"/>
<path d="M17.5 0.573242H2.5C1.12167 0.573242 0 1.69491 0 3.07324V18.9066H5V17.2399H1.66667V8.07324H18.3333V17.2399H17.5V18.9066H20V3.07324C20 1.69491 18.8783 0.573242 17.5 0.573242ZM18.3333 6.40658H1.66667V3.07324C1.66667 2.61408 2.04083 2.23991 2.5 2.23991H17.5C17.96 2.23991 18.3333 2.61408 18.3333 3.07324V6.40658Z" fill="white"/>
<path d="M3.75 5.57324C4.44036 5.57324 5 5.0136 5 4.32324C5 3.63289 4.44036 3.07324 3.75 3.07324C3.05964 3.07324 2.5 3.63289 2.5 4.32324C2.5 5.0136 3.05964 5.57324 3.75 5.57324Z" fill="white"/>
<path d="M7.0835 5.57324C7.77385 5.57324 8.3335 5.0136 8.3335 4.32324C8.3335 3.63289 7.77385 3.07324 7.0835 3.07324C6.39314 3.07324 5.8335 3.63289 5.8335 4.32324C5.8335 5.0136 6.39314 5.57324 7.0835 5.57324Z" fill="white"/>
</g>
<defs>
<clipPath id="clip0_365_406">
<rect width="20" height="20" fill="white" transform="translate(0 0.573242)"/>
</clipPath>
</defs>
</svg>
